<svg width="42" height="42" viewBox="0 0 42 42" fill="none" xmlns="http://www.w3.org/2000/svg">
<path d="M1 21C1 9.9543 9.9543 1 21 1C32.0457 1 41 9.9543 41 21C41 32.0457 32.0457 41 21 41C9.9543 41 1 32.0457 1 21Z" fill="white" stroke="#EDEDED"/>
<path d="M21 15.6845C22.6274 15.6845 23.7252 16.3874 24.3511 16.9748L26.7971 14.5867C25.2949 13.1904 23.34 12.3333 21 12.3333C17.6104 12.3333 14.683 14.2785 13.2578 17.1096L16.06 19.2859C16.763 17.1963 18.7082 15.6845 21 15.6845Z" fill="#EA4335"/>
<path d="M29.32 21.1926C29.32 20.48 29.2622 19.96 29.137 19.4207H21V22.637H25.7763C25.68 23.4363 25.16 24.64 24.0044 25.4489L26.7393 27.5674C28.3763 26.0556 29.32 23.8311 29.32 21.1926Z" fill="#4285F4"/>
<path d="M16.0693 22.7141C15.8863 22.1748 15.7804 21.597 15.7804 21C15.7804 20.403 15.8863 19.8252 16.0597 19.2859L13.2575 17.1096C12.67 18.2844 12.333 19.6037 12.333 21C12.333 22.3963 12.67 23.7156 13.2575 24.8904L16.0693 22.7141Z" fill="#FBBC05"/>
<path d="M20.9992 29.6667C23.3392 29.6667 25.3036 28.8963 26.7385 27.5674L24.0036 25.4489C23.2718 25.9593 22.2896 26.3156 20.9992 26.3156C18.7073 26.3156 16.7622 24.8037 16.0688 22.7141L13.2666 24.8904C14.6918 27.7215 17.6096 29.6667 20.9992 29.6667Z" fill="#34A853"/>
</svg>
