<svg width="110" height="46" viewBox="0 0 110 46" fill="none" xmlns="http://www.w3.org/2000/svg">
<path d="M54.8043 3.29785C50.2102 3.29785 46.3756 6.39531 45.3011 10.5678H47.6353C48.6541 7.61608 51.4884 5.50252 54.8043 5.50252C56.6198 5.50252 58.2685 6.12201 59.5837 7.17879H62.6588C60.8619 4.81014 58.0091 3.29785 54.8043 3.29785Z" fill="white"/>
<path d="M45.2827 15.3052C46.0052 18.0929 47.9503 20.4069 50.5437 21.6276V19.095C49.1914 18.184 48.154 16.8539 47.6168 15.3052H45.2827Z" fill="white"/>
<path d="M59.0654 19.095V21.6276C61.6403 20.4069 63.6039 18.0929 64.3264 15.3052H61.9923C61.4551 16.8721 60.4177 18.184 59.0654 19.095Z" fill="white"/>
<path d="M54.8045 2.20466C58.6576 2.20466 62.0477 4.19068 63.9928 7.1606H66.5677C64.4003 2.93348 59.9358 0 54.8045 0C49.6546 0 45.2087 2.91526 43.0413 7.1606H45.6162C47.5428 4.19068 50.9513 2.20466 54.8045 2.20466Z" fill="white"/>
<path d="M67.7351 15.3052H65.438C64.345 20.0971 59.9917 23.6683 54.7863 23.6683C50.9146 23.6683 47.5246 21.6823 45.5795 18.6942H43.0231C45.1905 22.9395 49.6549 25.873 54.8048 25.873C61.2329 25.873 66.6051 21.3179 67.7351 15.3052Z" fill="white"/>
<path d="M44.8567 17.3639C44.3751 16.3071 44.0602 15.1774 43.9305 13.9749H51.8776V22.1558C52.8038 22.4474 53.7857 22.5931 54.8045 22.5931C55.8234 22.5931 56.8052 22.4474 57.7314 22.1558V13.9749H67.92C67.9386 13.6287 67.9571 13.3007 67.9571 12.9546C67.9571 12.6084 67.9386 12.2622 67.92 11.9342H57.7314V10.5677H67.7348C67.6051 9.8571 67.4013 9.16472 67.1605 8.50879H55.4899V20.3702C55.2676 20.3885 55.0453 20.4067 54.8045 20.4067C54.5822 20.4067 54.3414 20.3885 54.1191 20.3702V8.50879H51.8776V11.916H43.9305C44.0416 10.7135 44.3751 9.56557 44.8567 8.50879H42.43C41.9113 9.89354 41.6334 11.3876 41.6334 12.9363C41.6334 14.4851 41.9113 15.9791 42.43 17.3639H44.8567Z" fill="white"/>
<path d="M38.4943 45.9819H41.6435V36.2887H54.407V33.501H38.4943V45.9819Z" fill="white"/>
<path d="M52.4808 38.3477H42.5886V41.1354H52.4808V38.3477Z" fill="white"/>
<path d="M73.4879 39.7506C73.4879 43.1942 76.3407 46.0002 79.8419 46.0002H90.7159V43.2125H79.8419C78.0821 43.2125 76.6371 41.4998 76.6371 39.7688C76.6371 38.0379 78.0635 36.3252 79.8419 36.3252H90.7159V33.5375H79.8419C76.3407 33.501 73.4879 36.307 73.4879 39.7506Z" fill="white"/>
<path d="M77.8224 39.7504C77.8224 40.5521 78.4708 41.1533 79.2859 41.1533H88.7891V38.3656H79.2859C78.4708 38.3474 77.8224 38.9487 77.8224 39.7504Z" fill="white"/>
<path d="M3.14921 33.501H0V45.9819H3.14921V41.1353H12.745V38.3476H3.14921V33.501Z" fill="white"/>
<path d="M16.8573 33.501H13.7081V45.9819H16.8573V33.501Z" fill="white"/>
<path d="M103.646 39.8052H96.2543V42.5929H103.646C105.405 42.5929 106.85 44.2509 106.85 45.9819H110C110 42.5382 107.147 39.8052 103.646 39.8052Z" fill="white"/>
<path d="M106.221 39.5318H109.37C109.259 36.1793 106.462 33.4827 103.035 33.4827H92.1608V45.9636H95.31V36.2704H103.035C104.739 36.2886 106.128 37.892 106.221 39.5318Z" fill="white"/>
<path d="M72.4874 33.501H69.3382V45.9819H72.4874V33.501Z" fill="white"/>
<path d="M55.6302 33.501V45.9819H58.7794V37.1086L68.3937 45.2167V41.4268L58.7794 33.501H55.6302Z" fill="white"/>
<path d="M17.9135 39.7506C17.9135 43.1942 20.7663 46.0002 24.2675 46.0002H27.1574V43.2125H24.2675C22.5077 43.2125 21.0627 41.4998 21.0627 39.7688C21.0627 38.0379 22.4891 36.3252 24.2675 36.3252H27.1574V33.5375H24.2675C20.7663 33.501 17.9135 36.307 17.9135 39.7506Z" fill="white"/>
<path d="M31.029 33.501H28.1391V36.2887H31.029C32.7888 36.2887 34.2337 38.0014 34.2337 39.7323C34.2337 41.4633 32.8073 43.176 31.029 43.176H28.1391V45.9637H31.029C34.5301 45.9637 37.3829 43.1578 37.3829 39.7141C37.3644 36.3069 34.5301 33.501 31.029 33.501Z" fill="white"/>
</svg>
